# xmcd
#
# Track frame offsets:
#  150
#  13485
#  28703
#  43435
#  58463
#  72478
#  87691
#  101530
#  114937
#  130117
#  144031
#  157366
#  171506
#  184549
#  198680
#  212876
#  227291
#  241053
#  253451
#  271379
#  288438
#  306994
#  322722
#
# Disc length: 4499 seconds
#
# Revision: 0
# Processed by: cddbd v1.5.1PL2 Copyright (c) Steve Scherf et al.
# Submitted via: Collectorz.com_Music_Collector 6.11
#
DISCID=65119117
DTITLE=Lonnie Johnson - Complete Recorded Works 1937 to June 1947 In Chronological Order Volume 2
DYEAR=1900
DGENRE=Blues
TTITLE0=Get Yourself Together
TTITLE1=Falling Rain (Live)
TTITLE2=Rocks In My Bed No. 2 (Live)
TTITLE3=Secret Emotions (Live)
TTITLE4=More Rhythm (Live)
TTITLE5=Crowing Rooster
TTITLE6=That's Love
TTITLE7=Somebody's Got To Go
TTITLE8=Lazy Woman Blues
TTITLE9=She Ain't Right
TTITLE10=Chicago Blues
TTITLE11=I Did All I Could
TTITLE12=In Love Again
TTITLE13=From 20 to 44
TTITLE14=The Last Call
TTITLE15=Rambler's Blues
TTITLE16=Lonesome Road
TTITLE17=Fly Right, Baby
TTITLE18=Baby, Remember Me
TTITLE19=The Devil's Woman
TTITLE20=Heart of Iron
TTITLE21=He's a Jelly-Roll Baker
TTITLE22=When You Feel Low Down
EXTD=
EXTT0=
EXTT1=
EXTT2=
EXTT3=
EXTT4=
EXTT5=
EXTT6=
EXTT7=
EXTT8=
EXTT9=
EXTT10=
EXTT11=
EXTT12=
EXTT13=
EXTT14=
EXTT15=
EXTT16=
EXTT17=
EXTT18=
EXTT19=
EXTT20=
EXTT21=
EXTT22=
PLAYORDER=
